<svg width="52" height="53" viewBox="0 0 52 53" fill="none" xmlns="http://www.w3.org/2000/svg">
<path fill-rule="evenodd" clip-rule="evenodd" d="M13.1097 7.04148C13.2005 6.22437 13.8912 5.6062 14.7133 5.6062H37.3582C38.1804 5.6062 38.871 6.22437 38.9618 7.04148L39.3924 10.9167C39.4374 11.322 39.4799 11.6752 39.5197 12.0068C39.6824 13.3607 39.8018 14.3538 39.8778 17.0665L36.619 16.0547C36.5516 14.0308 36.4584 13.3537 36.3393 12.4888C36.2921 12.1452 36.2407 11.772 36.1852 11.273L35.9141 8.8331H16.1574L15.8863 11.273C15.1321 18.0608 15.1321 33.3874 15.8863 40.1751L15.9287 40.5566C16.0756 41.879 17.1005 42.9335 18.4182 43.118C23.4719 43.8255 28.5996 43.8255 33.6533 43.118C34.971 42.9335 35.9959 41.879 36.1428 40.5566L36.1852 40.1751C36.2601 39.5014 36.3275 36.1898 36.3875 35.324L39.6343 35.1247C39.5643 36.2083 39.4837 39.7096 39.3924 40.5315L39.35 40.913C39.0401 43.7013 36.8791 45.9247 34.1007 46.3137C28.7501 47.0628 23.3213 47.0628 17.9708 46.3137C15.1924 45.9247 13.0313 43.7013 12.7215 40.913L12.6791 40.5315C11.8986 33.5069 11.8986 17.9412 12.6792 10.9167L13.1097 7.04148Z" fill="#10BB87"/>
<path fill-rule="evenodd" clip-rule="evenodd" d="M38.4736 19.9728C36.6643 18.9885 34.4008 18.9055 32.8625 19.1726C31.9845 19.3251 31.1492 18.7369 30.9968 17.859C30.8443 16.981 31.4324 16.1457 32.3104 15.9933C34.3163 15.6449 37.3755 15.702 40.0157 17.1382C42.7971 18.6513 44.8676 21.5666 44.8963 26.3596C44.9104 28.7146 44.4246 30.6458 43.5351 32.1884C42.6424 33.7366 41.395 34.8024 40.0346 35.4996C37.3726 36.8638 34.2832 36.8244 32.2682 36.4191C31.3946 36.2433 30.8289 35.3927 31.0047 34.5191C31.1804 33.6455 32.0311 33.0798 32.9046 33.2555C34.4764 33.5718 36.7606 33.5515 38.5629 32.6278C39.4346 32.1811 40.192 31.5262 40.7397 30.5765C41.2906 29.6211 41.6808 28.2771 41.6694 26.379C41.6472 22.6658 40.1416 20.8802 38.4736 19.9728Z" fill="#10BB87"/>
<path fill-rule="evenodd" clip-rule="evenodd" d="M33.7642 25.4087C33.5284 25.2805 33.1474 25.247 32.8625 25.2964C31.9845 25.4489 31.1492 24.8608 30.9968 23.9828C30.8443 23.1049 31.4324 22.2696 32.3104 22.1171C33.0628 21.9864 34.2397 21.9939 35.3062 22.5741C36.5141 23.2312 37.3199 24.484 37.3306 26.2688C37.3357 27.1196 37.1597 27.8925 36.7796 28.5517C36.3963 29.2165 35.8579 29.6738 35.2869 29.9664C34.2037 30.5215 33.0147 30.4889 32.2682 30.3387C31.3946 30.1629 30.8289 29.3123 31.0047 28.4387C31.1804 27.5651 32.0311 26.9994 32.9046 27.1752C33.0277 27.1999 33.2043 27.2158 33.3899 27.2007C33.576 27.1856 33.7194 27.1437 33.8152 27.0946C33.8975 27.0524 33.9459 27.0061 33.9842 26.9398C34.0256 26.8678 34.1061 26.6821 34.1037 26.2881C34.1014 25.8928 34.0192 25.693 33.9678 25.6033C33.9187 25.5178 33.8561 25.4587 33.7642 25.4087Z" fill="#10BB87"/>
</svg>
