<svg width="52" height="53" viewBox="0 0 52 53" fill="none" xmlns="http://www.w3.org/2000/svg">
<path d="M21.0879 38.0726C22.0384 38.0726 22.8089 37.3021 22.8089 36.3516V25.8104C22.8089 24.8599 22.0384 24.0894 21.0879 24.0894H20.2274C19.2769 24.0894 18.5063 24.8599 18.5063 25.8104V36.3516C18.5063 37.3021 19.2769 38.0726 20.2274 38.0726H21.0879Z" fill="#10BB87"/>
<path d="M27.1054 14.4087H9.47101C8.52052 14.4087 7.75 15.1792 7.75 16.1297V36.3516C7.75 37.3021 8.52052 38.0726 9.47101 38.0726H9.95141C10.9019 38.0726 11.6724 37.3021 11.6724 36.3516V20.3233C11.6724 19.5288 12.3093 18.8333 13.1541 18.8333H24.481C26.4041 18.8333 27.7507 19.6219 28.5836 20.743C29.3794 21.8142 29.646 23.1027 29.646 24.0894V36.3516C29.646 37.3021 30.4166 38.0726 31.367 38.0726H31.8442C32.7947 38.0726 33.5652 37.3021 33.5652 36.3516V21.0098C33.5652 19.6384 33.4046 17.8933 31.8932 16.3483C31.0444 15.483 30.2738 15.0154 29.5367 14.7531C28.7902 14.4874 28.0132 14.4087 27.1054 14.4087Z" fill="#10BB87"/>
<path d="M42.6005 38.0726C43.551 38.0726 44.3216 37.3021 44.3216 36.3516V16.1297C44.3216 15.1792 43.551 14.4087 42.6005 14.4087H41.74C40.7895 14.4087 40.019 15.1792 40.019 16.1297V36.3516C40.019 37.3021 40.7895 38.0726 41.74 38.0726H42.6005Z" fill="#10BB87"/>
</svg>
