<svg width="52" height="53" viewBox="0 0 52 53" fill="none" xmlns="http://www.w3.org/2000/svg">
<path d="M21.7329 4.46606C20.8418 4.46606 20.1195 5.18843 20.1195 6.07952V7.69297H12.59C11.6989 7.69297 10.9766 8.41533 10.9766 9.30642C10.9766 10.1975 11.6989 10.9199 12.59 10.9199H39.4809C40.3719 10.9199 41.0943 10.1975 41.0943 9.30642C41.0943 8.41533 40.3719 7.69297 39.4809 7.69297H31.9514V6.07952C31.9514 5.18843 31.2291 4.46606 30.338 4.46606H21.7329Z" fill="#10BB87"/>
<path fill-rule="evenodd" clip-rule="evenodd" d="M13.1094 16.6577C13.2002 15.8406 13.8908 15.2224 14.713 15.2224H37.3579C38.18 15.2224 38.8707 15.8406 38.9615 16.6577L39.392 20.5329C40.1726 27.5574 40.1726 34.6469 39.392 41.6715L39.3497 42.053C39.0398 44.8413 36.8788 47.0647 34.1004 47.4537C28.7498 48.2028 23.321 48.2028 17.9705 47.4537C15.1921 47.0647 13.031 44.8413 12.7212 42.053L12.6788 41.6715C11.8983 34.6469 11.8983 27.5574 12.6788 20.5329L13.1094 16.6577ZM16.1571 18.4493L15.886 20.8892C15.1318 27.677 15.1318 34.5274 15.886 41.3151L15.9284 41.6966C16.0753 43.019 17.1002 44.0735 18.4179 44.258C23.4716 44.9655 28.5992 44.9655 33.653 44.258C34.9707 44.0735 35.9956 43.019 36.1425 41.6966L36.1849 41.3151C36.9391 34.5274 36.9391 27.677 36.1849 20.8892L35.9138 18.4493H16.1571Z" fill="#10BB87"/>
</svg>
