<svg width="52" height="53" viewBox="0 0 52 53" fill="none" xmlns="http://www.w3.org/2000/svg">
<path fill-rule="evenodd" clip-rule="evenodd" d="M40.555 23.0139L40.5409 23.5364L40.555 24.0896L40.5417 24.6128L40.555 25.1652L40.5423 25.692L40.5549 26.2408L40.2055 41.5213C40.1227 45.1468 37.3652 48.1492 33.7599 48.5396C28.6239 49.0958 23.4429 49.0958 18.3069 48.5396C14.7015 48.1492 11.9441 45.1468 11.8612 41.5213L11.5119 26.2408L11.5245 25.6884L11.5119 25.1652L11.5252 24.615L11.5118 24.0896L11.5258 23.5387L11.5117 23.0139L11.8645 9.89564C11.8695 9.71261 11.8823 9.53148 11.9028 9.3526L11.9108 9.27696L11.9172 9.216C12.0906 7.44313 13.0731 5.89689 14.5048 4.96898C14.6116 4.89794 14.7209 4.83029 14.8326 4.76619C14.9418 4.70154 15.0533 4.64022 15.167 4.58238C15.8696 4.21158 16.6537 3.97124 17.4884 3.89441C23.173 3.37113 28.8937 3.37113 34.5783 3.89441C35.4117 3.97112 36.1946 4.21082 36.8964 4.58061C37.01 4.63836 37.1216 4.6996 37.2308 4.76416C37.346 4.83019 37.4587 4.89998 37.5688 4.97337C38.9929 5.89921 39.971 7.43742 40.1481 9.20136L40.1649 9.36121C40.1848 9.53729 40.1973 9.71555 40.2022 9.89565L40.555 23.0139ZM36.9495 9.72057L37.2872 24.4926L37.0135 40.6543C36.9519 42.9419 35.1898 44.8223 32.9111 45.032C28.3356 45.4532 23.7311 45.4532 19.1557 45.032C16.8769 44.8223 15.1148 42.9419 15.0532 40.6543L14.7796 24.4939L15.1173 9.72056C15.1181 9.68878 15.1194 9.65714 15.1213 9.62564C15.2492 8.76023 15.7508 8.01321 16.4619 7.55959C16.7312 7.41915 17.0301 7.32602 17.3481 7.29159C23.1214 6.66637 28.9454 6.66637 34.7187 7.29159C35.0365 7.32601 35.3353 7.41908 35.6046 7.55942C36.316 8.01315 36.8177 8.76053 36.9455 9.62636C36.9474 9.65762 36.9487 9.68902 36.9495 9.72057ZM26.0334 42.0463C27.8156 42.0463 29.2603 40.6016 29.2603 38.8194C29.2603 37.0372 27.8156 35.5925 26.0334 35.5925C24.2513 35.5925 22.8065 37.0372 22.8065 38.8194C22.8065 40.6016 24.2513 42.0463 26.0334 42.0463Z" fill="#10BB87"/>
</svg>
