<svg width="52" height="53" viewBox="0 0 52 53" fill="none" xmlns="http://www.w3.org/2000/svg">
<path fill-rule="evenodd" clip-rule="evenodd" d="M17.9945 44.2127C16.6115 43.7877 15.6523 42.5297 15.6085 41.0835L15.4375 14.1316H34.4801L34.3091 41.0835C34.2653 42.5297 33.3061 43.7877 31.9231 44.2127C27.385 45.6075 22.5326 45.6075 17.9945 44.2127ZM18.834 40.9858L18.6906 36.2549C20.5882 37.1643 22.714 37.6737 24.9588 37.6737C27.2036 37.6737 29.3294 37.1643 31.227 36.2549L31.0837 40.9858C31.0817 41.0516 31.038 41.1089 30.9751 41.1282C27.0547 42.3332 22.8629 42.3332 18.9425 41.1282C18.8796 41.1089 18.8359 41.0516 18.834 40.9858ZM18.834 33.4322L18.6906 17.5269L31.227 17.5268L31.0837 33.4322C31.0817 33.498 31.038 33.5553 30.9751 33.5746C27.0547 34.7796 22.8629 34.7796 18.9425 33.5746C18.8796 33.5553 18.8359 33.498 18.834 33.4322Z" fill="#10BB87"/>
<path d="M19.043 8.83635C19.043 7.94527 19.7653 7.2229 20.6564 7.2229H29.2615C30.1526 7.2229 30.8749 7.94529 30.8749 8.83637V12.0633H19.043V8.83635Z" fill="#10BB87"/>
</svg>
