<svg width="52" height="53" viewBox="0 0 52 53" fill="none" xmlns="http://www.w3.org/2000/svg">
<path d="M37.1208 39.5975L37.5023 39.5551C39.7087 39.3099 41.5613 37.9057 42.4312 35.9537C42.6607 35.4387 42.8218 34.8857 42.903 34.3058C43.6521 28.9552 43.6521 23.5264 42.903 18.1759C42.8218 17.596 42.6607 17.0429 42.4312 16.528C41.5618 14.5772 39.711 13.1735 37.5064 12.9271L37.5023 12.9266L37.1208 12.8842C30.0962 12.1037 23.0068 12.1037 15.9822 12.8842L15.6007 12.9266C12.8123 13.2364 10.5889 15.3975 10.1999 18.1759C9.45087 23.5264 9.45087 28.9552 10.1999 34.3058C10.5889 37.0842 12.8123 39.2452 15.6007 39.5551L15.9822 39.5975L16.3385 36.3903L15.957 36.3479C14.6346 36.201 13.5802 35.1761 13.3957 33.8584C12.6882 28.8046 12.6882 23.677 13.3957 18.6233C13.5802 17.3056 14.6346 16.2807 15.957 16.1338L16.3385 16.0914C23.1263 15.3372 29.9767 15.3372 36.7644 16.0914L37.1459 16.1338C37.9962 16.2282 38.7356 16.6856 39.2043 17.3504C39.4646 17.7196 39.6414 18.1528 39.7073 18.6233C40.4148 23.677 40.4148 28.8046 39.7073 33.8584C39.6414 34.3289 39.4646 34.762 39.2043 35.1312C38.7356 35.796 37.9962 36.2534 37.1459 36.3479L36.7644 36.3903L37.1208 39.5975Z" fill="#10BB87"/>
<path fill-rule="evenodd" clip-rule="evenodd" d="M26.5498 46.408C30.8077 46.408 34.2593 42.9563 34.2593 38.6984C34.2593 34.4406 30.8077 30.9889 26.5498 30.9889C22.2919 30.9889 18.8402 34.4406 18.8402 38.6984C18.8402 42.9563 22.2919 46.408 26.5498 46.408ZM26.5498 49.6349C32.5898 49.6349 37.4863 44.7385 37.4863 38.6984C37.4863 32.6584 32.5898 27.762 26.5498 27.762C20.5097 27.762 15.6133 32.6584 15.6133 38.6984C15.6133 44.7385 20.5097 49.6349 26.5498 49.6349Z" fill="#10BB87"/>
<path fill-rule="evenodd" clip-rule="evenodd" d="M26.549 40.5598C27.577 40.5598 28.4104 39.7264 28.4104 38.6984C28.4104 37.6703 27.577 36.8369 26.549 36.8369C25.5209 36.8369 24.6875 37.6703 24.6875 38.6984C24.6875 39.7264 25.5209 40.5598 26.549 40.5598Z" fill="#10BB87"/>
</svg>
