<svg width="52" height="53" viewBox="0 0 52 53" fill="none" xmlns="http://www.w3.org/2000/svg">
<path fill-rule="evenodd" clip-rule="evenodd" d="M37.1208 39.5975L37.5023 39.5551C39.7087 39.3099 41.5613 37.9057 42.4312 35.9537C42.6607 35.4387 42.8218 34.8857 42.903 34.3058C43.6521 28.9552 43.6521 23.5264 42.903 18.1759C42.8218 17.596 42.6607 17.0429 42.4312 16.528C41.5618 14.5772 39.711 13.1735 37.5064 12.9271L37.5023 12.9266L37.1208 12.8842C30.0962 12.1037 23.0068 12.1037 15.9822 12.8842L15.6007 12.9266C12.8123 13.2364 10.5889 15.3975 10.1999 18.1759C9.45087 23.5264 9.45087 28.9552 10.1999 34.3058C10.5889 37.0842 12.8123 39.2452 15.6007 39.5551L15.9822 39.5975L19.0063 39.8517L19.0063 45.5999C19.0063 46.491 19.7287 47.2134 20.6197 47.2134C21.5108 47.2134 22.2332 46.491 22.2332 45.5999L22.2332 40.1709C23.3051 40.2462 24.3818 40.2964 25.4601 40.3214L25.4601 43.4486C25.4601 44.3397 26.1825 45.0621 27.0735 45.0621C27.9646 45.0621 28.687 44.3397 28.687 43.4486L28.687 40.3214C29.7653 40.2964 30.842 40.2462 31.9139 40.1709L31.9139 45.5999C31.9139 46.491 32.6363 47.2134 33.5273 47.2134C34.4184 47.2134 35.1408 46.491 35.1408 45.5999L35.1408 39.8517L37.1208 39.5975ZM36.7644 16.0914C29.9767 15.3372 23.1263 15.3372 16.3385 16.0914L15.957 16.1338C14.6346 16.2807 13.5802 17.3056 13.3957 18.6233C12.6882 23.677 12.6882 28.8046 13.3957 33.8584C13.5802 35.1761 14.6346 36.201 15.957 36.3479L16.3385 36.3903C21.1117 36.9238 31.9913 36.9238 36.7644 36.3903L37.1459 36.3479C37.9962 36.2534 38.7356 35.796 39.2043 35.1312C39.4646 34.762 39.6414 34.3289 39.7073 33.8584C40.4148 28.8046 40.4148 23.677 39.7073 18.6233C39.6414 18.1528 39.4646 17.7196 39.2043 17.3504C38.7356 16.6856 37.9962 16.2282 37.1459 16.1338L36.7644 16.0914Z" fill="#10BB87"/>
</svg>
