<svg width="52" height="53" viewBox="0 0 52 53" fill="none" xmlns="http://www.w3.org/2000/svg">
<path fill-rule="evenodd" clip-rule="evenodd" d="M15.8172 16.0223V15.7644C15.8172 11.101 18.9745 7.02923 23.4909 5.86785C25.1603 5.43858 26.9112 5.43858 28.5806 5.86785C33.0971 7.02923 36.2543 11.101 36.2543 15.7644V16.0223H39.4836C40.7126 16.0223 41.7556 16.9236 41.9338 18.1396L42.4042 21.3503C43.3304 27.6717 43.3304 34.0944 42.4042 40.4158C41.9569 43.4685 39.4952 45.8285 36.4264 46.1468L35.0735 46.2871C29.0645 46.9103 23.0071 46.9103 16.998 46.2871L15.6451 46.1468C12.5763 45.8285 10.1146 43.4685 9.66732 40.4158C8.7411 34.0944 8.7411 27.6717 9.66732 21.3503L10.1377 18.1396C10.3159 16.9236 11.3589 16.0223 12.5879 16.0223H15.8172ZM24.2946 8.99309C25.4368 8.69937 26.6348 8.69937 27.777 8.99309C30.8672 9.78771 33.0274 12.5737 33.0274 15.7644V16.0223H19.0442V15.7644C19.0442 12.5737 21.2044 9.78771 24.2946 8.99309ZM15.8172 19.2492V24.0896C15.8172 24.9806 16.5396 25.703 17.4307 25.703C18.3218 25.703 19.0442 24.9806 19.0442 24.0896V19.2492H33.0274V24.0896C33.0274 24.9806 33.7498 25.703 34.6408 25.703C35.5319 25.703 36.2543 24.9806 36.2543 24.0896V19.2492H38.835L39.2114 21.8181C40.0922 27.8293 40.0922 33.9368 39.2114 39.948C38.9781 41.5402 37.6942 42.7711 36.0935 42.9371L34.7407 43.0774C28.9529 43.6776 23.1186 43.6776 17.3309 43.0774L15.978 42.9371C14.3774 42.7711 13.0934 41.5402 12.8601 39.948C11.9794 33.9368 11.9794 27.8293 12.8601 21.8181L13.2365 19.2492H15.8172Z" fill="#10BB87"/>
</svg>
