<svg width="52" height="53" viewBox="0 0 52 53" fill="none" xmlns="http://www.w3.org/2000/svg">
<path fill-rule="evenodd" clip-rule="evenodd" d="M13.6647 12.2575C13.6647 8.39612 16.795 5.26587 20.6564 5.26587C22.8189 5.26587 24.7521 6.24764 26.0345 7.78977C27.317 6.24764 29.2502 5.26587 31.4127 5.26587C35.2741 5.26587 38.4043 8.39612 38.4043 12.2575C38.4043 13.6436 38.001 14.9355 37.3052 16.0222H38.9421C42.2094 16.0222 44.8581 18.6709 44.8581 21.9382V26.2407C44.8581 27.9707 43.6913 29.4281 42.1017 29.8689C42.4116 33.7984 42.2321 37.7536 41.5656 41.6432C41.1676 43.9659 39.2812 45.7451 36.9393 46.0069L34.972 46.2268C29.0322 46.8906 23.0369 46.8906 17.097 46.2268L15.1298 46.0069C12.7879 45.7451 10.9015 43.9658 10.5035 41.6432C9.83696 37.7536 9.65745 33.7984 9.96738 29.8689C8.37778 29.4281 7.21094 27.9707 7.21094 26.2407V21.9382C7.21094 18.6709 9.85962 16.0222 13.1269 16.0222H14.7638C14.0681 14.9355 13.6647 13.6436 13.6647 12.2575ZM24.4211 12.2575C24.4211 10.1783 22.7356 8.49277 20.6564 8.49277C18.5772 8.49277 16.8916 10.1783 16.8916 12.2575C16.8916 14.3367 18.5772 16.0222 20.6564 16.0222C22.7356 16.0222 24.4211 14.3367 24.4211 12.2575ZM31.4127 16.0222C33.4919 16.0222 35.1774 14.3367 35.1774 12.2575C35.1774 10.1783 33.4919 8.49277 31.4127 8.49277C29.3335 8.49277 27.648 10.1783 27.648 12.2575C27.648 14.3367 29.3335 16.0222 31.4127 16.0222ZM10.4378 21.9382C10.4378 20.4531 11.6418 19.2491 13.1269 19.2491H24.4211V26.7785H10.9757C10.6786 26.7785 10.4378 26.5378 10.4378 26.2407V21.9382ZM27.648 30.0055H38.8754C39.1772 33.7069 39.013 37.4338 38.385 41.0982C38.2298 42.004 37.4942 42.6979 36.5809 42.7999L34.6136 43.0198C32.2981 43.2786 29.9739 43.4323 27.648 43.4809V30.0055ZM27.648 26.7785H41.0934C41.3904 26.7785 41.6312 26.5378 41.6312 26.2407V21.9382C41.6312 20.4531 40.4273 19.2491 38.9421 19.2491H27.648V26.7785ZM24.4211 30.0055V43.4809C22.0952 43.4323 19.7709 43.2786 17.4555 43.0198L15.4882 42.7999C14.5749 42.6979 13.8392 42.004 13.684 41.0982C13.0561 37.4338 12.8919 33.7069 13.1937 30.0055H24.4211Z" fill="#10BB87"/>
</svg>
