<svg width="50" height="50" viewBox="0 0 50 50" fill="none" xmlns="http://www.w3.org/2000/svg">
<path fill-rule="evenodd" clip-rule="evenodd" d="M40.3009 29.0545C39.6612 36.8149 33.1762 42.7874 25.3895 42.7874L24.6097 42.7874C16.823 42.7874 10.338 36.8149 9.69836 29.0545C9.35474 24.8858 10.6424 20.7464 13.2902 17.5082L21.9432 6.92579C23.5229 4.99391 26.4763 4.9939 28.056 6.92579L36.709 17.5082C39.3568 20.7464 40.6445 24.8858 40.3009 29.0545ZM25.3895 40.0794C31.7669 40.0794 37.0781 35.1879 37.602 28.8321C37.888 25.3625 36.8163 21.9174 34.6126 19.2224L25.9596 8.63996C25.4634 8.03316 24.5358 8.03316 24.0396 8.63996L15.3866 19.2224C13.1829 21.9174 12.1112 25.3625 12.3972 28.8321C12.9211 35.1879 18.2323 40.0794 24.6097 40.0794L25.3895 40.0794Z" fill="#10BB87"/>
<path d="M17.7783 26.9908C17.0305 26.9908 16.4131 27.6009 16.5298 28.3396C17.1074 31.9954 19.995 34.883 23.6508 35.4606C24.3895 35.5773 24.9996 34.9599 24.9996 34.2121C24.9996 33.4643 24.3852 32.8742 23.6571 32.7038C21.4948 32.1976 19.7928 30.4956 19.2866 28.3333C19.1162 27.6052 18.5261 26.9908 17.7783 26.9908Z" fill="#10BB87"/>
<path fill-rule="evenodd" clip-rule="evenodd" d="M40.5072 29.0718C39.8586 36.9402 33.2833 42.9958 25.3882 42.9958L24.6084 42.9958C16.7133 42.9958 10.138 36.9402 9.48943 29.0718C9.14137 24.8493 10.4457 20.6564 13.1276 17.3765L21.7807 6.79407C23.4437 4.76025 26.5529 4.76024 28.216 6.79407L36.869 17.3765C39.5509 20.6564 40.8552 24.8493 40.5072 29.0718ZM25.3882 42.5792C33.0665 42.5792 39.4612 36.6899 40.0919 29.0376C40.4311 24.9226 39.16 20.8366 36.5464 17.6402L27.8934 7.05783C26.3971 5.22788 23.5995 5.22789 22.1032 7.05783L13.4502 17.6402C10.8366 20.8366 9.5655 24.9226 9.90469 29.0376C10.5355 36.6899 16.9301 42.5792 24.6084 42.5792L25.3882 42.5792ZM25.3882 39.8712C31.6571 39.8712 36.8781 35.0629 37.3931 28.8151C37.6747 25.3994 36.6196 22.0077 34.45 19.3544L25.797 8.77199C25.3842 8.26714 24.6124 8.26714 24.1996 8.77199L15.5466 19.3544C13.3771 22.0077 12.322 25.3994 12.6035 28.8151C13.1185 35.0629 18.3395 39.8712 24.6084 39.8712L25.3882 39.8712ZM37.8084 28.8494C37.2756 35.3132 31.874 40.2879 25.3882 40.2879L24.6084 40.2879C18.1226 40.2879 12.7211 35.3132 12.1883 28.8494C11.8978 25.326 12.9862 21.8275 15.224 19.0907L23.877 8.50824C24.4566 7.7995 25.5401 7.7995 26.1196 8.50824L34.7726 19.0906C37.0104 21.8275 38.0988 25.326 37.8084 28.8494ZM25.2066 34.2122C25.2066 35.0644 24.5044 35.8067 23.617 35.6665C19.872 35.0749 16.9144 32.1173 16.3227 28.3722C16.1825 27.4849 16.9248 26.7826 17.777 26.7826C18.6485 26.7826 19.3025 27.4927 19.4882 28.286C19.9763 30.3712 21.6181 32.013 23.7032 32.5011C24.4965 32.6868 25.2066 33.3407 25.2066 34.2122ZM23.682 35.255C24.2719 35.3482 24.79 34.8556 24.79 34.2122C24.79 33.5882 24.2712 33.062 23.6083 32.9068C21.3689 32.3826 19.6067 30.6204 19.0825 28.381C18.9273 27.7181 18.4011 27.1993 17.777 27.1993C17.1336 27.1993 16.6411 27.7173 16.7343 28.3072C17.2978 31.8738 20.1154 34.6915 23.682 35.255Z" fill="#10BB87"/>
</svg>
