<svg width="50" height="50" viewBox="0 0 50 50" fill="none" xmlns="http://www.w3.org/2000/svg">
<path fill-rule="evenodd" clip-rule="evenodd" d="M25 4.6875C25.8629 4.6875 26.5625 5.38706 26.5625 6.25V29.1667C26.5625 30.0296 25.8629 30.7292 25 30.7292C24.1371 30.7292 23.4375 30.0296 23.4375 29.1667V6.25C23.4375 5.38706 24.1371 4.6875 25 4.6875Z" fill="#10BB87"/>
<path d="M26.5625 34.8958C26.5625 35.7587 25.8629 36.4583 25 36.4583C24.1371 36.4583 23.4375 35.7587 23.4375 34.8958C23.4375 34.0328 24.1371 33.3333 25 33.3333C25.8629 33.3333 26.5625 34.0328 26.5625 34.8958Z" fill="#10BB87"/>
<path fill-rule="evenodd" clip-rule="evenodd" d="M11.3964 23.8951C12.0066 23.285 12.996 23.285 13.6062 23.8951L19.8562 30.1451C20.4664 30.7553 20.4664 31.7447 19.8562 32.3549C19.246 32.965 18.2566 32.965 17.6464 32.3549L11.3964 26.1049C10.7863 25.4947 10.7863 24.5053 11.3964 23.8951ZM38.6062 23.8951C39.2164 24.5053 39.2164 25.4947 38.6062 26.1049L32.3562 32.3549C31.746 32.965 30.7566 32.965 30.1465 32.3549C29.5363 31.7447 29.5363 30.7553 30.1465 30.1451L36.3965 23.8951C37.0066 23.285 37.996 23.285 38.6062 23.8951ZM8.85547 37.5C8.85547 36.6371 9.55502 35.9375 10.418 35.9375H18.7513C19.6142 35.9375 20.3138 36.6371 20.3138 37.5C20.3138 38.3629 19.6142 39.0625 18.7513 39.0625H10.418C9.55502 39.0625 8.85547 38.3629 8.85547 37.5ZM39.5846 39.0625H31.2513C30.3884 39.0625 29.6888 38.3629 29.6888 37.5C29.6888 36.6371 30.3884 35.9375 31.2513 35.9375H39.5846C40.4476 35.9375 41.1471 36.6371 41.1471 37.5C41.1471 38.3629 40.4476 39.0625 39.5846 39.0625Z" fill="#10BB87"/>
<path fill-rule="evenodd" clip-rule="evenodd" d="M25 40.1042C25.8629 40.1042 26.5625 40.8038 26.5625 41.6667V43.7501C26.5625 44.613 25.8629 45.3126 25 45.3126C24.1371 45.3126 23.4375 44.613 23.4375 43.7501V41.6667C23.4375 40.8038 24.1371 40.1042 25 40.1042Z" fill="#10BB87"/>
</svg>
