<svg width="50" height="50" viewBox="0 0 50 50" fill="none" xmlns="http://www.w3.org/2000/svg">
<path fill-rule="evenodd" clip-rule="evenodd" d="M31.7133 5.87512C32.7303 4.85813 34.3791 4.85812 35.3961 5.87512L44.1235 14.6025C45.1404 15.6194 45.1404 17.2683 44.1235 18.2853L39.5925 22.8163C38.5755 23.8333 36.9266 23.8333 35.9096 22.8163L32.6508 19.5575L11.342 40.8663L9.13231 38.6565L30.4411 17.3478L27.1823 14.0889C26.1653 13.072 26.1653 11.4231 27.1823 10.4061L31.7133 5.87512ZM33.5547 8.45311L29.7603 12.2475L37.751 20.2383L41.5455 16.4439L33.5547 8.45311Z" fill="#10BB87"/>
<path fill-rule="evenodd" clip-rule="evenodd" d="M21.0594 18.9326L21.2873 18.7047C22.3043 17.6878 22.3043 16.0389 21.2873 15.0219L14.1739 7.90852C13.1569 6.89153 11.5081 6.89153 10.4911 7.90852L7.73428 10.6653C6.71729 11.6823 6.71729 13.3312 7.73428 14.3482L14.8476 21.4615C15.8646 22.4785 17.5135 22.4785 18.5305 21.4615L18.8497 21.1423L35.0257 37.3182L33.5407 31.4137L21.0594 18.9326ZM18.7093 16.8633L12.3325 10.4865L10.3123 12.5067L16.6891 18.8835L18.7093 16.8633Z" fill="#10BB87"/>
</svg>
