<svg width="50" height="50" viewBox="0 0 50 50" fill="none" xmlns="http://www.w3.org/2000/svg">
<path fill-rule="evenodd" clip-rule="evenodd" d="M37.5706 43.2124C29.2101 43.9292 20.7899 43.9292 12.4294 43.2124C11.3577 43.1205 10.4427 42.4751 10.1056 41.5648C9.13148 38.9341 9.13148 36.0659 10.1056 33.4352C10.4427 32.5249 11.3577 31.8795 12.4294 31.7876C20.7899 31.0708 29.2101 31.0708 37.5706 31.7876C38.6424 31.8795 39.5573 32.5249 39.8944 33.4352C40.8685 36.0659 40.8685 38.9341 39.8944 41.5648C39.5573 42.4751 38.6424 43.1205 37.5706 43.2124ZM37.221 40.579C37.9274 38.5822 37.9274 36.4178 37.221 34.421C29.0928 33.7289 20.9072 33.7289 12.779 34.421C12.0727 36.4178 12.0727 38.5822 12.779 40.579C20.9072 41.2711 29.0928 41.2711 37.221 40.579Z" fill="#10BB87"/>
<path fill-rule="evenodd" clip-rule="evenodd" d="M25.0666 2.64453C25.9296 2.64453 26.6291 3.34409 26.6291 4.20703V22.1068C26.6291 23.2159 25.9266 24.2033 24.8788 24.567L8.10938 30.3873V35.9866H9.34686C10.2098 35.9866 10.9094 36.6862 10.9094 37.5491C10.9094 38.4121 10.2098 39.1116 9.34686 39.1116H7.58854C6.1503 39.1116 4.98438 37.9457 4.98438 36.5075V30.0168C4.98438 28.9077 5.68686 27.9202 6.73466 27.5566L23.5041 21.7362V4.20703C23.5041 3.34409 24.2037 2.64453 25.0666 2.64453Z" fill="#10BB87"/>
</svg>
